<?xml version="1.0" encoding="us-ascii" standalone="no"?><svg xmlns="http://www.w3.org/2000/svg" xmlns:xlink="http://www.w3.org/1999/xlink" contentStyleType="text/css" height="717px" preserveAspectRatio="none" style="width:2027px;height:717px;background:#FFFFFF;" version="1.1" viewBox="0 0 2027 717" width="2027px" zoomAndPan="magnify"><defs/><g><text fill="#000000" font-family="sans-serif" font-size="14" font-weight="bold" lengthAdjust="spacing" text-decoration="line-through" textLength="526" x="744.875" y="34.5332">- Module Consultation: Gestion du panier de lecture (Ajout et Suppression)</text><text fill="#000000" font-family="sans-serif" font-size="14" font-weight="bold" lengthAdjust="spacing" textLength="5" x="1274.875" y="34.5332">-</text><rect fill="none" height="22.6406" style="stroke:none;stroke-width:1.0;" width="1994.75" x="15" y="51.0645"/><ellipse cx="122.5" cy="88.7051" fill="#222222" rx="10" ry="10" style="stroke:#222222;stroke-width:1.0;"/><rect fill="#F1F1F1" height="35.0938" rx="12.5" ry="12.5" style="stroke:#181818;stroke-width:0.5;" width="163" x="41" y="118.7051"/><text fill="#000000" font-family="sans-serif" font-size="12" lengthAdjust="spacing" textLength="143" x="51" y="141.1621">Acc&#232;de &#224; la fiche d'un livre</text><polygon fill="#F1F1F1" points="48,173.7988,197,173.7988,209,185.7988,197,197.7988,48,197.7988,36,185.7988,48,173.7988" style="stroke:#181818;stroke-width:0.5;"/><text fill="#000000" font-family="sans-serif" font-size="11" lengthAdjust="spacing" textLength="149" x="48" y="190.2998">Action == "Ajouter au panier" ?</text><text fill="#000000" font-family="sans-serif" font-size="11" lengthAdjust="spacing" textLength="16" x="20" y="183.3818">Oui</text><text fill="#000000" font-family="sans-serif" font-size="11" lengthAdjust="spacing" textLength="163" x="209" y="183.3818">Action == "Supprimer du panier" ?</text><polygon fill="#F1F1F1" points="122.5,584.1738,134.5,596.1738,122.5,608.1738,110.5,596.1738,122.5,584.1738" style="stroke:#181818;stroke-width:0.5;"/><rect fill="#F1F1F1" height="35.0938" rx="12.5" ry="12.5" style="stroke:#181818;stroke-width:0.5;" width="197" x="24" y="628.1738"/><text fill="#000000" font-family="sans-serif" font-size="12" lengthAdjust="spacing" textLength="177" x="34" y="650.6309">Voit la mise &#224; jour de son panier</text><ellipse cx="122.5" cy="694.2676" fill="none" rx="11" ry="11" style="stroke:#222222;stroke-width:1.0;"/><ellipse cx="122.5" cy="694.2676" fill="#222222" rx="6" ry="6" style="stroke:#222222;stroke-width:1.0;"/><line style="stroke:#000000;stroke-width:1.5;" x1="15" x2="15" y1="51.0645" y2="705.2676"/><rect fill="#F1F1F1" height="35.0938" rx="12.5" ry="12.5" style="stroke:#181818;stroke-width:0.5;" width="115" x="660.25" y="217.7988"/><text fill="#000000" font-family="sans-serif" font-size="12" lengthAdjust="spacing" textLength="95" x="670.25" y="240.2559">V&#233;rifie la session</text><polygon fill="#F1F1F1" points="678.25,272.8926,757.25,272.8926,769.25,284.8926,757.25,296.8926,678.25,296.8926,666.25,284.8926,678.25,272.8926" style="stroke:#181818;stroke-width:0.5;"/><text fill="#000000" font-family="sans-serif" font-size="11" lengthAdjust="spacing" textLength="79" x="678.25" y="289.3936">Session valide ?</text><text fill="#000000" font-family="sans-serif" font-size="11" lengthAdjust="spacing" textLength="16" x="650.25" y="282.4756">Oui</text><text fill="#000000" font-family="sans-serif" font-size="11" lengthAdjust="spacing" textLength="19" x="769.25" y="282.4756">Non</text><rect fill="#F1F1F1" height="35.0938" rx="12.5" ry="12.5" style="stroke:#181818;stroke-width:0.5;" width="187" x="383" y="471.0801"/><text fill="#000000" font-family="sans-serif" font-size="12" lengthAdjust="spacing" textLength="167" x="393" y="493.5371">Retourne "Ajout&#233; avec succ&#232;s"</text><rect fill="#F1F1F1" height="35.0938" rx="12.5" ry="12.5" style="stroke:#181818;stroke-width:0.5;" width="190" x="580" y="415.9863"/><text fill="#000000" font-family="sans-serif" font-size="12" lengthAdjust="spacing" textLength="170" x="590" y="438.4434">Retourne "D&#233;j&#224; dans le panier"</text><rect fill="#F1F1F1" height="35.0938" rx="12.5" ry="12.5" style="stroke:#181818;stroke-width:0.5;" width="152" x="798.25" y="316.8926"/><text fill="#000000" font-family="sans-serif" font-size="12" lengthAdjust="spacing" textLength="132" x="808.25" y="339.3496">Redirige vers connexion</text><polygon fill="#F1F1F1" points="717.75,550.1738,729.75,562.1738,717.75,574.1738,705.75,562.1738,717.75,550.1738" style="stroke:#181818;stroke-width:0.5;"/><rect fill="#F1F1F1" height="35.0938" rx="12.5" ry="12.5" style="stroke:#181818;stroke-width:0.5;" width="115" x="1113" y="217.7988"/><text fill="#000000" font-family="sans-serif" font-size="12" lengthAdjust="spacing" textLength="95" x="1123" y="240.2559">V&#233;rifie la session</text><polygon fill="#F1F1F1" points="1131,272.8926,1210,272.8926,1222,284.8926,1210,296.8926,1131,296.8926,1119,284.8926,1131,272.8926" style="stroke:#181818;stroke-width:0.5;"/><text fill="#000000" font-family="sans-serif" font-size="11" lengthAdjust="spacing" textLength="79" x="1131" y="289.3936">Session valide ?</text><text fill="#000000" font-family="sans-serif" font-size="11" lengthAdjust="spacing" textLength="16" x="1103" y="282.4756">Oui</text><text fill="#000000" font-family="sans-serif" font-size="11" lengthAdjust="spacing" textLength="19" x="1222" y="282.4756">Non</text><rect fill="#F1F1F1" height="35.0938" rx="12.5" ry="12.5" style="stroke:#181818;stroke-width:0.5;" width="194" x="960.25" y="371.9863"/><text fill="#000000" font-family="sans-serif" font-size="12" lengthAdjust="spacing" textLength="174" x="970.25" y="394.4434">Retourne "Livre retir&#233; du panier"</text><rect fill="#F1F1F1" height="35.0938" rx="12.5" ry="12.5" style="stroke:#181818;stroke-width:0.5;" width="152" x="1207.75" y="316.8926"/><text fill="#000000" font-family="sans-serif" font-size="12" lengthAdjust="spacing" textLength="132" x="1217.75" y="339.3496">Redirige vers connexion</text><polygon fill="#F1F1F1" points="1170.5,417.0801,1182.5,429.0801,1170.5,441.0801,1158.5,429.0801,1170.5,417.0801" style="stroke:#181818;stroke-width:0.5;"/><line style="stroke:#000000;stroke-width:1.5;" x1="377" x2="377" y1="51.0645" y2="705.2676"/><rect fill="#F1F1F1" height="35.0938" rx="12.5" ry="12.5" style="stroke:#181818;stroke-width:0.5;" width="264" x="1469.25" y="316.8926"/><text fill="#000000" font-family="sans-serif" font-size="12" lengthAdjust="spacing" textLength="244" x="1479.25" y="339.3496">V&#233;rifie existence du lien [Utilisateur &lt;-&gt; Livre]</text><polygon fill="#F1F1F1" points="1566.25,371.9863,1636.25,371.9863,1648.25,383.9863,1636.25,395.9863,1566.25,395.9863,1554.25,383.9863,1566.25,371.9863" style="stroke:#181818;stroke-width:0.5;"/><text fill="#000000" font-family="sans-serif" font-size="11" lengthAdjust="spacing" textLength="70" x="1566.25" y="388.4873">Lien existant ?</text><text fill="#000000" font-family="sans-serif" font-size="11" lengthAdjust="spacing" textLength="19" x="1535.25" y="381.5693">Non</text><text fill="#000000" font-family="sans-serif" font-size="11" lengthAdjust="spacing" textLength="16" x="1648.25" y="381.5693">Oui</text><rect fill="#F1F1F1" height="35.0938" rx="12.5" ry="12.5" style="stroke:#181818;stroke-width:0.5;" width="232" x="1369.75" y="415.9863"/><text fill="#000000" font-family="sans-serif" font-size="12" lengthAdjust="spacing" textLength="212" x="1379.75" y="438.4434">Cr&#233;e l'association dans la table Panier</text><polygon fill="#F1F1F1" points="1601.25,516.1738,1613.25,528.1738,1601.25,540.1738,1589.25,528.1738,1601.25,516.1738" style="stroke:#181818;stroke-width:0.5;"/><rect fill="#F1F1F1" height="35.0938" rx="12.5" ry="12.5" style="stroke:#181818;stroke-width:0.5;" width="261" x="1743.25" y="316.8926"/><text fill="#000000" font-family="sans-serif" font-size="12" lengthAdjust="spacing" textLength="241" x="1753.25" y="339.3496">Supprime l'association [Utilisateur &lt;-&gt; Livre]</text><line style="stroke:#000000;stroke-width:1.5;" x1="1363.75" x2="1363.75" y1="51.0645" y2="705.2676"/><line style="stroke:#000000;stroke-width:1.5;" x1="2008.25" x2="2008.25" y1="51.0645" y2="705.2676"/><line style="stroke:#181818;stroke-width:1.0;" x1="122.5" x2="122.5" y1="98.7051" y2="118.7051"/><polygon fill="#181818" points="118.5,108.7051,122.5,118.7051,126.5,108.7051,122.5,112.7051" style="stroke:#181818;stroke-width:1.0;"/><line style="stroke:#181818;stroke-width:1.0;" x1="122.5" x2="122.5" y1="153.7988" y2="173.7988"/><polygon fill="#181818" points="118.5,163.7988,122.5,173.7988,126.5,163.7988,122.5,167.7988" style="stroke:#181818;stroke-width:1.0;"/><line style="stroke:#181818;stroke-width:1.0;" x1="122.5" x2="122.5" y1="608.1738" y2="628.1738"/><polygon fill="#181818" points="118.5,618.1738,122.5,628.1738,126.5,618.1738,122.5,622.1738" style="stroke:#181818;stroke-width:1.0;"/><line style="stroke:#181818;stroke-width:1.0;" x1="122.5" x2="122.5" y1="663.2676" y2="683.2676"/><polygon fill="#181818" points="118.5,673.2676,122.5,683.2676,126.5,673.2676,122.5,677.2676" style="stroke:#181818;stroke-width:1.0;"/><line style="stroke:#181818;stroke-width:1.0;" x1="769.25" x2="874.25" y1="284.8926" y2="284.8926"/><line style="stroke:#181818;stroke-width:1.0;" x1="874.25" x2="874.25" y1="284.8926" y2="316.8926"/><polygon fill="#181818" points="870.25,306.8926,874.25,316.8926,878.25,306.8926,874.25,310.8926" style="stroke:#181818;stroke-width:1.0;"/><line style="stroke:#181818;stroke-width:1.0;" x1="874.25" x2="874.25" y1="351.9863" y2="562.1738"/><line style="stroke:#181818;stroke-width:1.0;" x1="874.25" x2="729.75" y1="562.1738" y2="562.1738"/><polygon fill="#181818" points="739.75,558.1738,729.75,562.1738,739.75,566.1738,735.75,562.1738" style="stroke:#181818;stroke-width:1.0;"/><line style="stroke:#181818;stroke-width:1.0;" x1="717.75" x2="717.75" y1="252.8926" y2="272.8926"/><polygon fill="#181818" points="713.75,262.8926,717.75,272.8926,721.75,262.8926,717.75,266.8926" style="stroke:#181818;stroke-width:1.0;"/><line style="stroke:#181818;stroke-width:1.0;" x1="1222" x2="1283.75" y1="284.8926" y2="284.8926"/><line style="stroke:#181818;stroke-width:1.0;" x1="1283.75" x2="1283.75" y1="284.8926" y2="316.8926"/><polygon fill="#181818" points="1279.75,306.8926,1283.75,316.8926,1287.75,306.8926,1283.75,310.8926" style="stroke:#181818;stroke-width:1.0;"/><line style="stroke:#181818;stroke-width:1.0;" x1="1057.25" x2="1057.25" y1="407.0801" y2="429.0801"/><line style="stroke:#181818;stroke-width:1.0;" x1="1057.25" x2="1158.5" y1="429.0801" y2="429.0801"/><polygon fill="#181818" points="1148.5,425.0801,1158.5,429.0801,1148.5,433.0801,1152.5,429.0801" style="stroke:#181818;stroke-width:1.0;"/><line style="stroke:#181818;stroke-width:1.0;" x1="1283.75" x2="1283.75" y1="351.9863" y2="429.0801"/><line style="stroke:#181818;stroke-width:1.0;" x1="1283.75" x2="1182.5" y1="429.0801" y2="429.0801"/><polygon fill="#181818" points="1192.5,425.0801,1182.5,429.0801,1192.5,433.0801,1188.5,429.0801" style="stroke:#181818;stroke-width:1.0;"/><line style="stroke:#181818;stroke-width:1.0;" x1="1170.5" x2="1170.5" y1="252.8926" y2="272.8926"/><polygon fill="#181818" points="1166.5,262.8926,1170.5,272.8926,1174.5,262.8926,1170.5,266.8926" style="stroke:#181818;stroke-width:1.0;"/><line style="stroke:#181818;stroke-width:1.0;" x1="1554.25" x2="1485.75" y1="383.9863" y2="383.9863"/><line style="stroke:#181818;stroke-width:1.0;" x1="1485.75" x2="1485.75" y1="383.9863" y2="415.9863"/><polygon fill="#181818" points="1481.75,405.9863,1485.75,415.9863,1489.75,405.9863,1485.75,409.9863" style="stroke:#181818;stroke-width:1.0;"/><line style="stroke:#181818;stroke-width:1.0;" x1="1601.25" x2="1601.25" y1="351.9863" y2="371.9863"/><polygon fill="#181818" points="1597.25,361.9863,1601.25,371.9863,1605.25,361.9863,1601.25,365.9863" style="stroke:#181818;stroke-width:1.0;"/><line style="stroke:#181818;stroke-width:1.0;" x1="1485.75" x2="1485.75" y1="451.0801" y2="456.0801"/><line style="stroke:#181818;stroke-width:1.0;" x1="1485.75" x2="476.5" y1="456.0801" y2="456.0801"/><line style="stroke:#181818;stroke-width:1.0;" x1="476.5" x2="476.5" y1="456.0801" y2="471.0801"/><polygon fill="#181818" points="472.5,461.0801,476.5,471.0801,480.5,461.0801,476.5,465.0801" style="stroke:#181818;stroke-width:1.0;"/><line style="stroke:#181818;stroke-width:1.0;" x1="1648.25" x2="1660.25" y1="383.9863" y2="383.9863"/><line style="stroke:#181818;stroke-width:1.0;" x1="1660.25" x2="1660.25" y1="383.9863" y2="401.9863"/><line style="stroke:#181818;stroke-width:1.0;" x1="1660.25" x2="675" y1="401.9863" y2="401.9863"/><line style="stroke:#181818;stroke-width:1.0;" x1="675" x2="675" y1="401.9863" y2="415.9863"/><polygon fill="#181818" points="671,405.9863,675,415.9863,679,405.9863,675,409.9863" style="stroke:#181818;stroke-width:1.0;"/><line style="stroke:#181818;stroke-width:1.0;" x1="476.5" x2="476.5" y1="506.1738" y2="528.1738"/><line style="stroke:#181818;stroke-width:1.0;" x1="476.5" x2="1589.25" y1="528.1738" y2="528.1738"/><polygon fill="#181818" points="1579.25,524.1738,1589.25,528.1738,1579.25,532.1738,1583.25,528.1738" style="stroke:#181818;stroke-width:1.0;"/><line style="stroke:#181818;stroke-width:1.0;" x1="675" x2="675" y1="451.0801" y2="510.1738"/><line style="stroke:#181818;stroke-width:1.0;" x1="675" x2="1631.25" y1="510.1738" y2="510.1738"/><line style="stroke:#181818;stroke-width:1.0;" x1="1631.25" x2="1631.25" y1="510.1738" y2="528.1738"/><line style="stroke:#181818;stroke-width:1.0;" x1="1631.25" x2="1613.25" y1="528.1738" y2="528.1738"/><polygon fill="#181818" points="1623.25,524.1738,1613.25,528.1738,1623.25,532.1738,1619.25,528.1738" style="stroke:#181818;stroke-width:1.0;"/><line style="stroke:#181818;stroke-width:1.0;" x1="666.25" x2="654.25" y1="284.8926" y2="284.8926"/><line style="stroke:#181818;stroke-width:1.0;" x1="654.25" x2="654.25" y1="284.8926" y2="302.8926"/><line style="stroke:#181818;stroke-width:1.0;" x1="654.25" x2="1601.25" y1="302.8926" y2="302.8926"/><line style="stroke:#181818;stroke-width:1.0;" x1="1601.25" x2="1601.25" y1="302.8926" y2="316.8926"/><polygon fill="#181818" points="1597.25,306.8926,1601.25,316.8926,1605.25,306.8926,1601.25,310.8926" style="stroke:#181818;stroke-width:1.0;"/><line style="stroke:#181818;stroke-width:1.0;" x1="1601.25" x2="1601.25" y1="540.1738" y2="544.1738"/><line style="stroke:#181818;stroke-width:1.0;" x1="1601.25" x2="687.75" y1="544.1738" y2="544.1738"/><line style="stroke:#181818;stroke-width:1.0;" x1="687.75" x2="687.75" y1="544.1738" y2="562.1738"/><line style="stroke:#181818;stroke-width:1.0;" x1="687.75" x2="705.75" y1="562.1738" y2="562.1738"/><polygon fill="#181818" points="695.75,558.1738,705.75,562.1738,695.75,566.1738,699.75,562.1738" style="stroke:#181818;stroke-width:1.0;"/><line style="stroke:#181818;stroke-width:1.0;" x1="1873.75" x2="1873.75" y1="351.9863" y2="356.9863"/><line style="stroke:#181818;stroke-width:1.0;" x1="1873.75" x2="1057.25" y1="356.9863" y2="356.9863"/><line style="stroke:#181818;stroke-width:1.0;" x1="1057.25" x2="1057.25" y1="356.9863" y2="371.9863"/><polygon fill="#181818" points="1053.25,361.9863,1057.25,371.9863,1061.25,361.9863,1057.25,365.9863" style="stroke:#181818;stroke-width:1.0;"/><line style="stroke:#181818;stroke-width:1.0;" x1="1119" x2="1107" y1="284.8926" y2="284.8926"/><line style="stroke:#181818;stroke-width:1.0;" x1="1107" x2="1107" y1="284.8926" y2="302.8926"/><line style="stroke:#181818;stroke-width:1.0;" x1="1107" x2="1873.75" y1="302.8926" y2="302.8926"/><line style="stroke:#181818;stroke-width:1.0;" x1="1873.75" x2="1873.75" y1="302.8926" y2="316.8926"/><polygon fill="#181818" points="1869.75,306.8926,1873.75,316.8926,1877.75,306.8926,1873.75,310.8926" style="stroke:#181818;stroke-width:1.0;"/><line style="stroke:#181818;stroke-width:1.0;" x1="36" x2="24" y1="185.7988" y2="185.7988"/><line style="stroke:#181818;stroke-width:1.0;" x1="24" x2="24" y1="185.7988" y2="203.7988"/><line style="stroke:#181818;stroke-width:1.0;" x1="24" x2="717.75" y1="203.7988" y2="203.7988"/><line style="stroke:#181818;stroke-width:1.0;" x1="717.75" x2="717.75" y1="203.7988" y2="217.7988"/><polygon fill="#181818" points="713.75,207.7988,717.75,217.7988,721.75,207.7988,717.75,211.7988" style="stroke:#181818;stroke-width:1.0;"/><line style="stroke:#181818;stroke-width:1.0;" x1="209" x2="1170.5" y1="185.7988" y2="185.7988"/><line style="stroke:#181818;stroke-width:1.0;" x1="1170.5" x2="1170.5" y1="185.7988" y2="217.7988"/><polygon fill="#181818" points="1166.5,207.7988,1170.5,217.7988,1174.5,207.7988,1170.5,211.7988" style="stroke:#181818;stroke-width:1.0;"/><line style="stroke:#181818;stroke-width:1.0;" x1="717.75" x2="717.75" y1="574.1738" y2="578.1738"/><line style="stroke:#181818;stroke-width:1.0;" x1="717.75" x2="92.5" y1="578.1738" y2="578.1738"/><line style="stroke:#181818;stroke-width:1.0;" x1="92.5" x2="92.5" y1="578.1738" y2="596.1738"/><line style="stroke:#181818;stroke-width:1.0;" x1="92.5" x2="110.5" y1="596.1738" y2="596.1738"/><polygon fill="#181818" points="100.5,592.1738,110.5,596.1738,100.5,600.1738,104.5,596.1738" style="stroke:#181818;stroke-width:1.0;"/><line style="stroke:#181818;stroke-width:1.0;" x1="1170.5" x2="1170.5" y1="441.0801" y2="596.1738"/><line style="stroke:#181818;stroke-width:1.0;" x1="1170.5" x2="134.5" y1="596.1738" y2="596.1738"/><polygon fill="#181818" points="144.5,592.1738,134.5,596.1738,144.5,600.1738,140.5,596.1738" style="stroke:#181818;stroke-width:1.0;"/><text fill="#000000" font-family="sans-serif" font-size="18" lengthAdjust="spacing" textLength="117" x="137.5" y="69.75">Lecteur/Auteur</text><text fill="#000000" font-family="sans-serif" font-size="18" lengthAdjust="spacing" textLength="63" x="838.875" y="69.75">Serveur</text><text fill="#000000" font-family="sans-serif" font-size="18" lengthAdjust="spacing" textLength="140" x="1616" y="69.75">Base de donn&#233;es</text><!--SRC=[lLExRXin4EplAnPgR1L2UfsTG760D4fiHB2R80N3MyLhqEI1kpouqCUajBxZVYnBdYMThC810aJ5wHwxCpkpGo5n2BFP3Bw49kdjLV2Sd1YXuEVm6JdVG9EWDPumGeFWq4gA2EUBXv04K62LsZOYivPECrXLRPPQX2c-MwJyjwbOJ9Hglh2sVrQC_ZSu0skozmZDMVBWg8jOLxHMM5iuBozXKXYKrUpu9_1X2dAF7iwl4qqhqDzcXR4h9FbfVjTl8wq9Cm4FGzNbIyPU3I-WCuvqZ5Em0lZHC6QbJV2-to9lzfyEwFX4BEWjPdCSASZtMo57RB9Wk9YzXsNMzAFUD-S1bhcoz1el1_wlwjo-hX1THMK6TsQOWoKphC5uphB4_DHLtHH7wgEsOo_sODzGGeeUNnpjjs0wjC0fhuCd1mnqglpOZR-2_THl7tIdmu2uMzO8rpUqhWuCHteLfw58ln0wZ0nMNLU7TciRMeUsKJHAvkWnHt8SZl-VYDqWhtRrPXfEFHtvMOeXef36OAIm_YSFo_NaQCxl0adsvf6ud4oDI3deh3BQbv2nXFOF]--></g></svg>