<?xml version="1.0" encoding="us-ascii" standalone="no"?><svg xmlns="http://www.w3.org/2000/svg" xmlns:xlink="http://www.w3.org/1999/xlink" contentStyleType="text/css" height="779px" preserveAspectRatio="none" style="width:1763px;height:779px;background:#FFFFFF;" version="1.1" viewBox="0 0 1763 779" width="1763px" zoomAndPan="magnify"><defs/><g><text fill="#000000" font-family="sans-serif" font-size="14" font-weight="bold" lengthAdjust="spacing" textLength="253" x="753.5625" y="34.5332">Administration des comptes et r&#244;les</text><rect fill="none" height="22.6406" style="stroke:none;stroke-width:1.0;" width="1730.125" x="15" y="51.0645"/><ellipse cx="361.625" cy="88.7051" fill="#222222" rx="10" ry="10" style="stroke:#222222;stroke-width:1.0;"/><rect fill="#F1F1F1" height="35.0938" rx="12.5" ry="12.5" style="stroke:#181818;stroke-width:0.5;" width="231" x="246.125" y="118.7051"/><text fill="#000000" font-family="sans-serif" font-size="12" lengthAdjust="spacing" textLength="211" x="256.125" y="141.1621">Acc&#232;de au panel "Gestion Utilisateurs"</text><rect fill="#F1F1F1" height="35.0938" rx="12.5" ry="12.5" style="stroke:#181818;stroke-width:0.5;" width="159" x="282.125" y="173.7988"/><text fill="#000000" font-family="sans-serif" font-size="12" lengthAdjust="spacing" textLength="139" x="292.125" y="196.2559">S&#233;lectionne un utilisateur</text><polygon fill="#F1F1F1" points="297.625,228.8926,425.625,228.8926,437.625,240.8926,425.625,252.8926,297.625,252.8926,285.625,240.8926,297.625,228.8926" style="stroke:#181818;stroke-width:0.5;"/><text fill="#000000" font-family="sans-serif" font-size="11" lengthAdjust="spacing" textLength="128" x="297.625" y="245.3936">Action == "Modifier R&#244;le" ?</text><text fill="#000000" font-family="sans-serif" font-size="11" lengthAdjust="spacing" textLength="16" x="269.625" y="238.4756">Oui</text><text fill="#000000" font-family="sans-serif" font-size="11" lengthAdjust="spacing" textLength="165" x="437.625" y="238.4756">Action == "Supprimer Utilisateur" ?</text><rect fill="#F1F1F1" height="35.0938" rx="12.5" ry="12.5" style="stroke:#181818;stroke-width:0.5;" width="294" x="21" y="272.8926"/><text fill="#000000" font-family="sans-serif" font-size="12" lengthAdjust="spacing" textLength="274" x="31" y="295.3496">Choisit le nouveau r&#244;le (Lecteur, Auteur ou Admin)</text><rect fill="#F1F1F1" height="35.0938" rx="12.5" ry="12.5" style="stroke:#181818;stroke-width:0.5;" width="139" x="98.5" y="327.9863"/><text fill="#000000" font-family="sans-serif" font-size="12" lengthAdjust="spacing" textLength="119" x="108.5" y="350.4434">Valide le changement</text><polygon fill="#F1F1F1" points="361.625,646.3613,373.625,658.3613,361.625,670.3613,349.625,658.3613,361.625,646.3613" style="stroke:#181818;stroke-width:0.5;"/><rect fill="#F1F1F1" height="35.0938" rx="12.5" ry="12.5" style="stroke:#181818;stroke-width:0.5;" width="232" x="245.625" y="690.3613"/><text fill="#000000" font-family="sans-serif" font-size="12" lengthAdjust="spacing" textLength="212" x="255.625" y="712.8184">Voit la liste des utilisateurs mise &#224; jour</text><ellipse cx="361.625" cy="756.4551" fill="none" rx="11" ry="11" style="stroke:#222222;stroke-width:1.0;"/><ellipse cx="361.625" cy="756.4551" fill="#222222" rx="6" ry="6" style="stroke:#222222;stroke-width:1.0;"/><line style="stroke:#000000;stroke-width:1.5;" x1="15" x2="15" y1="51.0645" y2="767.4551"/><rect fill="#F1F1F1" height="35.0938" rx="12.5" ry="12.5" style="stroke:#181818;stroke-width:0.5;" width="182" x="710.875" y="383.0801"/><text fill="#000000" font-family="sans-serif" font-size="12" lengthAdjust="spacing" textLength="162" x="720.875" y="405.5371">V&#233;rifie session ROLE_ADMIN</text><polygon fill="#F1F1F1" points="782.375,453.1738,821.375,453.1738,833.375,465.1738,821.375,477.1738,782.375,477.1738,770.375,465.1738,782.375,453.1738" style="stroke:#181818;stroke-width:0.5;"/><text fill="#000000" font-family="sans-serif" font-size="11" lengthAdjust="spacing" textLength="39" x="782.375" y="469.6748">Admin ?</text><text fill="#000000" font-family="sans-serif" font-size="11" lengthAdjust="spacing" textLength="16" x="754.375" y="462.7568">Oui</text><text fill="#000000" font-family="sans-serif" font-size="11" lengthAdjust="spacing" textLength="19" x="833.375" y="462.7568">Non</text><rect fill="#F1F1F1" height="35.0938" rx="12.5" ry="12.5" style="stroke:#181818;stroke-width:0.5;" width="197" x="613.625" y="567.2676"/><text fill="#000000" font-family="sans-serif" font-size="12" lengthAdjust="spacing" textLength="177" x="623.625" y="589.7246">Confirme le changement de r&#244;le</text><rect fill="#F1F1F1" height="35.0938" rx="12.5" ry="12.5" style="stroke:#181818;stroke-width:0.5;" width="78" x="852.625" y="497.1738"/><text fill="#000000" font-family="sans-serif" font-size="12" lengthAdjust="spacing" textLength="58" x="862.625" y="519.6309">Erreur 403</text><polygon fill="#F1F1F1" points="801.875,612.3613,813.875,624.3613,801.875,636.3613,789.875,624.3613,801.875,612.3613" style="stroke:#181818;stroke-width:0.5;"/><rect fill="#F1F1F1" height="35.0938" rx="12.5" ry="12.5" style="stroke:#181818;stroke-width:0.5;" width="146" x="1035.875" y="272.8926"/><text fill="#000000" font-family="sans-serif" font-size="12" lengthAdjust="spacing" textLength="126" x="1045.875" y="295.3496">Clique sur "Supprimer"</text><rect fill="#F1F1F1" height="35.0938" rx="12.5" ry="12.5" style="stroke:#181818;stroke-width:0.5;" width="182" x="1017.875" y="327.9863"/><text fill="#000000" font-family="sans-serif" font-size="12" lengthAdjust="spacing" textLength="162" x="1027.875" y="350.4434">V&#233;rifie session ROLE_ADMIN</text><polygon fill="#F1F1F1" points="1089.375,383.0801,1128.375,383.0801,1140.375,395.0801,1128.375,407.0801,1089.375,407.0801,1077.375,395.0801,1089.375,383.0801" style="stroke:#181818;stroke-width:0.5;"/><text fill="#000000" font-family="sans-serif" font-size="11" lengthAdjust="spacing" textLength="39" x="1089.375" y="399.5811">Admin ?</text><text fill="#000000" font-family="sans-serif" font-size="11" lengthAdjust="spacing" textLength="16" x="1061.375" y="392.6631">Oui</text><text fill="#000000" font-family="sans-serif" font-size="11" lengthAdjust="spacing" textLength="19" x="1140.375" y="392.6631">Non</text><rect fill="#F1F1F1" height="35.0938" rx="12.5" ry="12.5" style="stroke:#181818;stroke-width:0.5;" width="157" x="940.625" y="497.1738"/><text fill="#000000" font-family="sans-serif" font-size="12" lengthAdjust="spacing" textLength="137" x="950.625" y="519.6309">Confirme la suppression</text><rect fill="#F1F1F1" height="35.0938" rx="12.5" ry="12.5" style="stroke:#181818;stroke-width:0.5;" width="78" x="1159.625" y="427.0801"/><text fill="#000000" font-family="sans-serif" font-size="12" lengthAdjust="spacing" textLength="58" x="1169.625" y="449.5371">Erreur 403</text><polygon fill="#F1F1F1" points="1108.875,542.2676,1120.875,554.2676,1108.875,566.2676,1096.875,554.2676,1108.875,542.2676" style="stroke:#181818;stroke-width:0.5;"/><line style="stroke:#000000;stroke-width:1.5;" x1="607.625" x2="607.625" y1="51.0645" y2="767.4551"/><rect fill="#F1F1F1" height="35.0938" rx="12.5" ry="12.5" style="stroke:#181818;stroke-width:0.5;" width="241" x="1247.625" y="497.1738"/><text fill="#000000" font-family="sans-serif" font-size="12" lengthAdjust="spacing" textLength="221" x="1257.625" y="519.6309">Met &#224; jour le champ 'roles' de l'utilisateur</text><rect fill="#F1F1F1" height="35.0938" rx="12.5" ry="12.5" style="stroke:#181818;stroke-width:0.5;" width="241" x="1498.625" y="427.0801"/><text fill="#000000" font-family="sans-serif" font-size="12" lengthAdjust="spacing" textLength="221" x="1508.625" y="449.5371">Supprime l'utilisateur et ses liens panier</text><line style="stroke:#000000;stroke-width:1.5;" x1="1241.625" x2="1241.625" y1="51.0645" y2="767.4551"/><line style="stroke:#000000;stroke-width:1.5;" x1="1743.625" x2="1743.625" y1="51.0645" y2="767.4551"/><line style="stroke:#181818;stroke-width:1.0;" x1="361.625" x2="361.625" y1="98.7051" y2="118.7051"/><polygon fill="#181818" points="357.625,108.7051,361.625,118.7051,365.625,108.7051,361.625,112.7051" style="stroke:#181818;stroke-width:1.0;"/><line style="stroke:#181818;stroke-width:1.0;" x1="361.625" x2="361.625" y1="153.7988" y2="173.7988"/><polygon fill="#181818" points="357.625,163.7988,361.625,173.7988,365.625,163.7988,361.625,167.7988" style="stroke:#181818;stroke-width:1.0;"/><line style="stroke:#181818;stroke-width:1.0;" x1="168" x2="168" y1="307.9863" y2="327.9863"/><polygon fill="#181818" points="164,317.9863,168,327.9863,172,317.9863,168,321.9863" style="stroke:#181818;stroke-width:1.0;"/><line style="stroke:#181818;stroke-width:1.0;" x1="285.625" x2="168" y1="240.8926" y2="240.8926"/><line style="stroke:#181818;stroke-width:1.0;" x1="168" x2="168" y1="240.8926" y2="272.8926"/><polygon fill="#181818" points="164,262.8926,168,272.8926,172,262.8926,168,266.8926" style="stroke:#181818;stroke-width:1.0;"/><line style="stroke:#181818;stroke-width:1.0;" x1="361.625" x2="361.625" y1="208.8926" y2="228.8926"/><polygon fill="#181818" points="357.625,218.8926,361.625,228.8926,365.625,218.8926,361.625,222.8926" style="stroke:#181818;stroke-width:1.0;"/><line style="stroke:#181818;stroke-width:1.0;" x1="361.625" x2="361.625" y1="670.3613" y2="690.3613"/><polygon fill="#181818" points="357.625,680.3613,361.625,690.3613,365.625,680.3613,361.625,684.3613" style="stroke:#181818;stroke-width:1.0;"/><line style="stroke:#181818;stroke-width:1.0;" x1="361.625" x2="361.625" y1="725.4551" y2="745.4551"/><polygon fill="#181818" points="357.625,735.4551,361.625,745.4551,365.625,735.4551,361.625,739.4551" style="stroke:#181818;stroke-width:1.0;"/><line style="stroke:#181818;stroke-width:1.0;" x1="833.375" x2="891.625" y1="465.1738" y2="465.1738"/><line style="stroke:#181818;stroke-width:1.0;" x1="891.625" x2="891.625" y1="465.1738" y2="497.1738"/><polygon fill="#181818" points="887.625,487.1738,891.625,497.1738,895.625,487.1738,891.625,491.1738" style="stroke:#181818;stroke-width:1.0;"/><line style="stroke:#181818;stroke-width:1.0;" x1="712.125" x2="712.125" y1="602.3613" y2="624.3613"/><line style="stroke:#181818;stroke-width:1.0;" x1="712.125" x2="789.875" y1="624.3613" y2="624.3613"/><polygon fill="#181818" points="779.875,620.3613,789.875,624.3613,779.875,628.3613,783.875,624.3613" style="stroke:#181818;stroke-width:1.0;"/><line style="stroke:#181818;stroke-width:1.0;" x1="891.625" x2="891.625" y1="532.2676" y2="624.3613"/><line style="stroke:#181818;stroke-width:1.0;" x1="891.625" x2="813.875" y1="624.3613" y2="624.3613"/><polygon fill="#181818" points="823.875,620.3613,813.875,624.3613,823.875,628.3613,819.875,624.3613" style="stroke:#181818;stroke-width:1.0;"/><line style="stroke:#181818;stroke-width:1.0;" x1="801.875" x2="801.875" y1="418.1738" y2="453.1738"/><polygon fill="#181818" points="797.875,443.1738,801.875,453.1738,805.875,443.1738,801.875,447.1738" style="stroke:#181818;stroke-width:1.0;"/><line style="stroke:#181818;stroke-width:1.0;" x1="1108.875" x2="1108.875" y1="307.9863" y2="327.9863"/><polygon fill="#181818" points="1104.875,317.9863,1108.875,327.9863,1112.875,317.9863,1108.875,321.9863" style="stroke:#181818;stroke-width:1.0;"/><line style="stroke:#181818;stroke-width:1.0;" x1="1140.375" x2="1198.625" y1="395.0801" y2="395.0801"/><line style="stroke:#181818;stroke-width:1.0;" x1="1198.625" x2="1198.625" y1="395.0801" y2="427.0801"/><polygon fill="#181818" points="1194.625,417.0801,1198.625,427.0801,1202.625,417.0801,1198.625,421.0801" style="stroke:#181818;stroke-width:1.0;"/><line style="stroke:#181818;stroke-width:1.0;" x1="1019.125" x2="1019.125" y1="532.2676" y2="554.2676"/><line style="stroke:#181818;stroke-width:1.0;" x1="1019.125" x2="1096.875" y1="554.2676" y2="554.2676"/><polygon fill="#181818" points="1086.875,550.2676,1096.875,554.2676,1086.875,558.2676,1090.875,554.2676" style="stroke:#181818;stroke-width:1.0;"/><line style="stroke:#181818;stroke-width:1.0;" x1="1198.625" x2="1198.625" y1="462.1738" y2="554.2676"/><line style="stroke:#181818;stroke-width:1.0;" x1="1198.625" x2="1120.875" y1="554.2676" y2="554.2676"/><polygon fill="#181818" points="1130.875,550.2676,1120.875,554.2676,1130.875,558.2676,1126.875,554.2676" style="stroke:#181818;stroke-width:1.0;"/><line style="stroke:#181818;stroke-width:1.0;" x1="1108.875" x2="1108.875" y1="363.0801" y2="383.0801"/><polygon fill="#181818" points="1104.875,373.0801,1108.875,383.0801,1112.875,373.0801,1108.875,377.0801" style="stroke:#181818;stroke-width:1.0;"/><line style="stroke:#181818;stroke-width:1.0;" x1="168" x2="168" y1="363.0801" y2="368.0801"/><line style="stroke:#181818;stroke-width:1.0;" x1="168" x2="801.875" y1="368.0801" y2="368.0801"/><line style="stroke:#181818;stroke-width:1.0;" x1="801.875" x2="801.875" y1="368.0801" y2="383.0801"/><polygon fill="#181818" points="797.875,373.0801,801.875,383.0801,805.875,373.0801,801.875,377.0801" style="stroke:#181818;stroke-width:1.0;"/><line style="stroke:#181818;stroke-width:1.0;" x1="1368.125" x2="1368.125" y1="532.2676" y2="549.7676"/><line style="stroke:#181818;stroke-width:1.0;" x1="1368.125" x2="712.125" y1="549.7676" y2="549.7676"/><line style="stroke:#181818;stroke-width:1.0;" x1="712.125" x2="712.125" y1="549.7676" y2="567.2676"/><polygon fill="#181818" points="708.125,557.2676,712.125,567.2676,716.125,557.2676,712.125,561.2676" style="stroke:#181818;stroke-width:1.0;"/><line style="stroke:#181818;stroke-width:1.0;" x1="770.375" x2="758.375" y1="465.1738" y2="465.1738"/><line style="stroke:#181818;stroke-width:1.0;" x1="758.375" x2="758.375" y1="465.1738" y2="483.1738"/><line style="stroke:#181818;stroke-width:1.0;" x1="758.375" x2="1368.125" y1="483.1738" y2="483.1738"/><line style="stroke:#181818;stroke-width:1.0;" x1="1368.125" x2="1368.125" y1="483.1738" y2="497.1738"/><polygon fill="#181818" points="1364.125,487.1738,1368.125,497.1738,1372.125,487.1738,1368.125,491.1738" style="stroke:#181818;stroke-width:1.0;"/><line style="stroke:#181818;stroke-width:1.0;" x1="1619.125" x2="1619.125" y1="462.1738" y2="479.6738"/><line style="stroke:#181818;stroke-width:1.0;" x1="1619.125" x2="1019.125" y1="479.6738" y2="479.6738"/><line style="stroke:#181818;stroke-width:1.0;" x1="1019.125" x2="1019.125" y1="479.6738" y2="497.1738"/><polygon fill="#181818" points="1015.125,487.1738,1019.125,497.1738,1023.125,487.1738,1019.125,491.1738" style="stroke:#181818;stroke-width:1.0;"/><line style="stroke:#181818;stroke-width:1.0;" x1="1077.375" x2="1065.375" y1="395.0801" y2="395.0801"/><line style="stroke:#181818;stroke-width:1.0;" x1="1065.375" x2="1065.375" y1="395.0801" y2="413.0801"/><line style="stroke:#181818;stroke-width:1.0;" x1="1065.375" x2="1619.125" y1="413.0801" y2="413.0801"/><line style="stroke:#181818;stroke-width:1.0;" x1="1619.125" x2="1619.125" y1="413.0801" y2="427.0801"/><polygon fill="#181818" points="1615.125,417.0801,1619.125,427.0801,1623.125,417.0801,1619.125,421.0801" style="stroke:#181818;stroke-width:1.0;"/><line style="stroke:#181818;stroke-width:1.0;" x1="437.625" x2="1108.875" y1="240.8926" y2="240.8926"/><line style="stroke:#181818;stroke-width:1.0;" x1="1108.875" x2="1108.875" y1="240.8926" y2="272.8926"/><polygon fill="#181818" points="1104.875,262.8926,1108.875,272.8926,1112.875,262.8926,1108.875,266.8926" style="stroke:#181818;stroke-width:1.0;"/><line style="stroke:#181818;stroke-width:1.0;" x1="801.875" x2="801.875" y1="636.3613" y2="640.3613"/><line style="stroke:#181818;stroke-width:1.0;" x1="801.875" x2="331.625" y1="640.3613" y2="640.3613"/><line style="stroke:#181818;stroke-width:1.0;" x1="331.625" x2="331.625" y1="640.3613" y2="658.3613"/><line style="stroke:#181818;stroke-width:1.0;" x1="331.625" x2="349.625" y1="658.3613" y2="658.3613"/><polygon fill="#181818" points="339.625,654.3613,349.625,658.3613,339.625,662.3613,343.625,658.3613" style="stroke:#181818;stroke-width:1.0;"/><line style="stroke:#181818;stroke-width:1.0;" x1="1108.875" x2="1108.875" y1="566.2676" y2="658.3613"/><line style="stroke:#181818;stroke-width:1.0;" x1="1108.875" x2="373.625" y1="658.3613" y2="658.3613"/><polygon fill="#181818" points="383.625,654.3613,373.625,658.3613,383.625,662.3613,379.625,658.3613" style="stroke:#181818;stroke-width:1.0;"/><text fill="#000000" font-family="sans-serif" font-size="18" lengthAdjust="spacing" textLength="114" x="254.3125" y="69.75">Administrateur</text><text fill="#000000" font-family="sans-serif" font-size="18" lengthAdjust="spacing" textLength="63" x="893.125" y="69.75">Serveur</text><text fill="#000000" font-family="sans-serif" font-size="18" lengthAdjust="spacing" textLength="140" x="1422.625" y="69.75">Base de donn&#233;es</text><!--SRC=[nPEzJiCm4CVtFCKfIrk90GccL1KA7q98b4gjw8giv4eFENRm1rCVXf7kl45UZBDT-W4CC9716Uxylz_zx-p8IOIoRaYHTKOuqWfgj53ffdNyHmUcUvTeisorbuRUh3BhX75PKLPLzrOZ20-jK2WXlqORXUuTIR8ns-R3h9XrQubL22a4hy3luiEC5j0lOn168yZ7kgO5eO5fA9_3sG3S4XNq9vu66V1NN2mrMNB07IZjNv018YlqRxaAYnv1wSCVj4yz3eRfvbn8Oc9EhPP2FMA3ogLGF5OpD2-nnPJThKrW0OlM1hxfvFRgeRmStzobIn4zwFz06VNEXKMs5Mhkl5kZNMr3nPWTxbxXIJDcucbQw1dDblV25TaxS6ahUO2OxD1gGQRvqbRGYAwakoYPf7-drOwkk38cc7HwVBB9KMnzbZBt9ZBpRMkeuP7ipJKCPZCDIS-UFMAbNMh-Jwv-0XpQ5xQPgu4aL3OiA-_NBoqLt1XB9jG_MndFR- -dcEkmlO9vhCFuxFPWBJJ41JQxCUJNfjiF]--></g></svg>